<mxfile host="Electron" agent="Mozilla/5.0 (Windows NT 10.0; Win64; x64) AppleWebKit/537.36 (KHTML, like Gecko) draw.io/28.1.2 Chrome/138.0.7204.243 Electron/37.4.0 Safari/537.36" version="28.1.2">
  <diagram name="Page-1" id="caUtYiohZnL23IAZNrcm">
    <mxGraphModel dx="786" dy="482" grid="1" gridSize="10" guides="1" tooltips="1" connect="1" arrows="1" fold="1" page="1" pageScale="1" pageWidth="850" pageHeight="1100" math="0" shadow="0">
      <root>
        <mxCell id="0" />
        <mxCell id="1" parent="0" />
        <mxCell id="w5IkpH8JXHDGHeNf7wii-1" value="" style="rounded=0;whiteSpace=wrap;html=1;fillColor=none;dashed=1;strokeColor=light-dark(#5e5e5e, #ededed);" vertex="1" parent="1">
          <mxGeometry x="80" y="80" width="120" height="290" as="geometry" />
        </mxCell>
        <mxCell id="w5IkpH8JXHDGHeNf7wii-2" value="Sources" style="rounded=0;whiteSpace=wrap;html=1;fontSize=24;dashed=1;" vertex="1" parent="1">
          <mxGeometry x="85" y="70" width="110" height="20" as="geometry" />
        </mxCell>
        <mxCell id="w5IkpH8JXHDGHeNf7wii-3" value="" style="rounded=0;whiteSpace=wrap;html=1;fillColor=none;dashed=1;strokeColor=light-dark(#5e5e5e, #ededed);gradientColor=default;" vertex="1" parent="1">
          <mxGeometry x="260" y="80" width="430" height="310" as="geometry" />
        </mxCell>
        <mxCell id="w5IkpH8JXHDGHeNf7wii-4" value="Data Warehouse" style="rounded=0;whiteSpace=wrap;html=1;fontSize=24;dashed=1;" vertex="1" parent="1">
          <mxGeometry x="360" y="70" width="250" height="20" as="geometry" />
        </mxCell>
        <mxCell id="w5IkpH8JXHDGHeNf7wii-6" value="" style="rounded=0;whiteSpace=wrap;html=1;fillColor=none;dashed=1;strokeColor=light-dark(#5e5e5e, #ededed);" vertex="1" parent="1">
          <mxGeometry x="730" y="80" width="110" height="290" as="geometry" />
        </mxCell>
        <mxCell id="w5IkpH8JXHDGHeNf7wii-7" value="&lt;font style=&quot;font-size: 24px;&quot;&gt;Consume&lt;/font&gt;" style="rounded=0;whiteSpace=wrap;html=1;" vertex="1" parent="1">
          <mxGeometry x="730" y="70" width="110" height="20" as="geometry" />
        </mxCell>
        <mxCell id="w5IkpH8JXHDGHeNf7wii-8" value="Bronze Layer" style="rounded=0;whiteSpace=wrap;html=1;fillColor=#f8cecc;strokeColor=#b85450;fontSize=16;" vertex="1" parent="1">
          <mxGeometry x="280" y="100" width="120" height="30" as="geometry" />
        </mxCell>
        <mxCell id="w5IkpH8JXHDGHeNf7wii-9" value="" style="rounded=0;whiteSpace=wrap;html=1;fontSize=16;fillColor=default;" vertex="1" parent="1">
          <mxGeometry x="280" y="150" width="120" height="210" as="geometry" />
        </mxCell>
        <mxCell id="w5IkpH8JXHDGHeNf7wii-10" value="Silver Layer" style="rounded=0;whiteSpace=wrap;html=1;fillColor=#d0cee2;strokeColor=#56517e;fontSize=16;" vertex="1" parent="1">
          <mxGeometry x="425" y="100" width="120" height="30" as="geometry" />
        </mxCell>
        <mxCell id="w5IkpH8JXHDGHeNf7wii-11" value="Silver Layer" style="rounded=0;whiteSpace=wrap;html=1;fillColor=#fff2cc;strokeColor=#d6b656;fontSize=16;" vertex="1" parent="1">
          <mxGeometry x="570" y="100" width="120" height="30" as="geometry" />
        </mxCell>
        <mxCell id="w5IkpH8JXHDGHeNf7wii-12" value="CRM" style="image;aspect=fixed;html=1;points=[];align=center;fontSize=12;image=img/lib/azure2/general/Folder_Blank.svg;" vertex="1" parent="1">
          <mxGeometry x="120" y="160" width="36.96" height="30" as="geometry" />
        </mxCell>
        <mxCell id="w5IkpH8JXHDGHeNf7wii-13" value="" style="image;aspect=fixed;html=1;points=[];align=center;fontSize=12;image=img/lib/azure2/general/Media_File.svg;" vertex="1" parent="1">
          <mxGeometry x="140" y="170" width="16.25" height="20" as="geometry" />
        </mxCell>
        <mxCell id="w5IkpH8JXHDGHeNf7wii-14" value="ERP" style="image;aspect=fixed;html=1;points=[];align=center;fontSize=12;image=img/lib/azure2/general/Folder_Blank.svg;" vertex="1" parent="1">
          <mxGeometry x="119.28999999999999" y="230" width="36.96" height="30" as="geometry" />
        </mxCell>
        <mxCell id="w5IkpH8JXHDGHeNf7wii-15" value="" style="image;aspect=fixed;html=1;points=[];align=center;fontSize=12;image=img/lib/azure2/general/Media_File.svg;" vertex="1" parent="1">
          <mxGeometry x="140" y="245" width="16.25" height="20" as="geometry" />
        </mxCell>
        <mxCell id="w5IkpH8JXHDGHeNf7wii-25" value="Object Type : CSV FIles&lt;div&gt;&lt;br&gt;&lt;div&gt;Interface: Files in Folders&lt;/div&gt;&lt;/div&gt;" style="text;html=1;align=center;verticalAlign=middle;whiteSpace=wrap;rounded=0;fontSize=10;" vertex="1" parent="1">
          <mxGeometry x="80" y="310" width="120" height="30" as="geometry" />
        </mxCell>
        <mxCell id="w5IkpH8JXHDGHeNf7wii-26" value="" style="html=1;verticalLabelPosition=bottom;align=center;labelBackgroundColor=#ffffff;verticalAlign=top;strokeWidth=2;strokeColor=#b85450;shadow=0;dashed=0;shape=mxgraph.ios7.icons.data;fillColor=#f8cecc;" vertex="1" parent="1">
          <mxGeometry x="328" y="215.9" width="24" height="29.099999999999998" as="geometry" />
        </mxCell>
        <mxCell id="w5IkpH8JXHDGHeNf7wii-27" value="" style="rounded=0;whiteSpace=wrap;html=1;fontSize=16;fillColor=default;" vertex="1" parent="1">
          <mxGeometry x="425" y="150" width="120" height="240" as="geometry" />
        </mxCell>
        <mxCell id="w5IkpH8JXHDGHeNf7wii-28" value="" style="rounded=0;whiteSpace=wrap;html=1;fontSize=16;fillColor=default;" vertex="1" parent="1">
          <mxGeometry x="560" y="150" width="120" height="210" as="geometry" />
        </mxCell>
        <mxCell id="w5IkpH8JXHDGHeNf7wii-29" value="" style="html=1;verticalLabelPosition=bottom;align=center;labelBackgroundColor=#ffffff;verticalAlign=top;strokeWidth=2;strokeColor=#9673a6;shadow=0;dashed=0;shape=mxgraph.ios7.icons.data;fillColor=#e1d5e7;" vertex="1" parent="1">
          <mxGeometry x="473" y="215.9" width="24" height="29.099999999999998" as="geometry" />
        </mxCell>
        <mxCell id="w5IkpH8JXHDGHeNf7wii-30" value="" style="html=1;verticalLabelPosition=bottom;align=center;labelBackgroundColor=#ffffff;verticalAlign=top;strokeWidth=2;strokeColor=#d6b656;shadow=0;dashed=0;shape=mxgraph.ios7.icons.data;fillColor=#fff2cc;" vertex="1" parent="1">
          <mxGeometry x="608" y="215.9" width="24" height="29.099999999999998" as="geometry" />
        </mxCell>
        <mxCell id="w5IkpH8JXHDGHeNf7wii-31" value="" style="shape=flexArrow;endArrow=classic;html=1;rounded=0;" edge="1" parent="1">
          <mxGeometry width="50" height="50" relative="1" as="geometry">
            <mxPoint x="210" y="245" as="sourcePoint" />
            <mxPoint x="260" y="245" as="targetPoint" />
          </mxGeometry>
        </mxCell>
        <mxCell id="w5IkpH8JXHDGHeNf7wii-32" value="" style="shape=flexArrow;endArrow=classic;html=1;rounded=0;" edge="1" parent="1">
          <mxGeometry width="50" height="50" relative="1" as="geometry">
            <mxPoint x="690" y="244" as="sourcePoint" />
            <mxPoint x="740" y="244" as="targetPoint" />
          </mxGeometry>
        </mxCell>
        <mxCell id="w5IkpH8JXHDGHeNf7wii-33" value="" style="shape=flexArrow;endArrow=classic;html=1;rounded=0;" edge="1" parent="1">
          <mxGeometry width="50" height="50" relative="1" as="geometry">
            <mxPoint x="380" y="240" as="sourcePoint" />
            <mxPoint x="430" y="240" as="targetPoint" />
          </mxGeometry>
        </mxCell>
        <mxCell id="w5IkpH8JXHDGHeNf7wii-34" value="" style="shape=flexArrow;endArrow=classic;html=1;rounded=0;" edge="1" parent="1">
          <mxGeometry width="50" height="50" relative="1" as="geometry">
            <mxPoint x="530" y="240" as="sourcePoint" />
            <mxPoint x="580" y="240" as="targetPoint" />
          </mxGeometry>
        </mxCell>
        <mxCell id="w5IkpH8JXHDGHeNf7wii-35" value="Raw Data" style="text;html=1;align=center;verticalAlign=middle;whiteSpace=wrap;rounded=0;" vertex="1" parent="1">
          <mxGeometry x="310" y="245" width="60" height="30" as="geometry" />
        </mxCell>
        <mxCell id="w5IkpH8JXHDGHeNf7wii-37" value="Cleaned, Standardized Data" style="text;html=1;align=center;verticalAlign=middle;whiteSpace=wrap;rounded=0;" vertex="1" parent="1">
          <mxGeometry x="427.5" y="250" width="115" height="30" as="geometry" />
        </mxCell>
        <mxCell id="w5IkpH8JXHDGHeNf7wii-38" value="Business-Ready-Data" style="text;html=1;align=center;verticalAlign=middle;whiteSpace=wrap;rounded=0;" vertex="1" parent="1">
          <mxGeometry x="565" y="250" width="110" height="30" as="geometry" />
        </mxCell>
        <mxCell id="w5IkpH8JXHDGHeNf7wii-39" value="Object Type : Table&lt;div&gt;&lt;br&gt;&lt;/div&gt;&lt;div&gt;Load:&lt;/div&gt;&lt;div&gt;Barch Processing&lt;/div&gt;&lt;div&gt;Full Load (Trunc and research)&lt;/div&gt;" style="text;html=1;align=center;verticalAlign=middle;whiteSpace=wrap;rounded=0;fontSize=10;" vertex="1" parent="1">
          <mxGeometry x="280" y="300" width="120" height="30" as="geometry" />
        </mxCell>
        <mxCell id="w5IkpH8JXHDGHeNf7wii-40" value="Transformations:&lt;div&gt;Data Cleansing&amp;nbsp;&lt;/div&gt;&lt;div&gt;Data Standrization&lt;/div&gt;&lt;div&gt;Data Normalization&lt;/div&gt;&lt;div&gt;Derived Columns&lt;/div&gt;&lt;div&gt;Data Enrichment&lt;/div&gt;&lt;div&gt;&lt;br&gt;&lt;/div&gt;&lt;div&gt;Data Model: None (as-is)&lt;/div&gt;" style="text;html=1;align=center;verticalAlign=middle;whiteSpace=wrap;rounded=0;fontSize=10;" vertex="1" parent="1">
          <mxGeometry x="427.5" y="320" width="120" height="30" as="geometry" />
        </mxCell>
        <mxCell id="w5IkpH8JXHDGHeNf7wii-41" value="Data Model:&lt;div&gt;Star Schema&lt;/div&gt;&lt;div&gt;Flat Table&lt;/div&gt;&lt;div&gt;Aggregated Table&lt;/div&gt;" style="text;html=1;align=center;verticalAlign=middle;whiteSpace=wrap;rounded=0;fontSize=10;" vertex="1" parent="1">
          <mxGeometry x="560" y="300" width="120" height="30" as="geometry" />
        </mxCell>
        <mxCell id="w5IkpH8JXHDGHeNf7wii-42" value="" style="image;aspect=fixed;html=1;points=[];align=center;fontSize=12;image=img/lib/azure2/analytics/Power_BI_Embedded.svg;" vertex="1" parent="1">
          <mxGeometry x="759.5" y="122" width="51" height="68" as="geometry" />
        </mxCell>
        <mxCell id="w5IkpH8JXHDGHeNf7wii-43" value="" style="image;aspect=fixed;html=1;points=[];align=center;fontSize=12;image=img/lib/azure2/ai_machine_learning/Anomaly_Detector.svg;" vertex="1" parent="1">
          <mxGeometry x="760" y="230" width="39.5" height="39.5" as="geometry" />
        </mxCell>
        <mxCell id="w5IkpH8JXHDGHeNf7wii-44" value="Machine Learning" style="text;html=1;align=center;verticalAlign=middle;whiteSpace=wrap;rounded=0;" vertex="1" parent="1">
          <mxGeometry x="755" y="275" width="60" height="30" as="geometry" />
        </mxCell>
      </root>
    </mxGraphModel>
  </diagram>
</mxfile>
